<svg xmlns="http://www.w3.org/2000/svg" xmlns:xlink="http://www.w3.org/1999/xlink" width="200" height="45" viewBox="0 0 200 45">
    <defs>
        <rect id="nb8998117a" width="45.324" height="44.795" x="0" y=".144" rx="8.041"/>
    </defs>
    <g fill="none" fill-rule="evenodd">
        <g>
            <g>
                <g fill-rule="nonzero">
                    <path fill="#000" d="M7.809 16.002c1.069 0 2.075-.2 3.019-.6.944-.4 1.78-.954 2.51-1.664.728-.71 1.297-1.533 1.707-2.47.41-.938.614-1.944.614-3.019 0-1.047-.205-2.04-.614-2.977-.41-.937-.979-1.768-1.708-2.491-.729-.724-1.565-1.292-2.509-1.706-.944-.413-1.95-.62-3.02-.62-1.082 0-2.096.207-3.04.62-.944.414-1.773.982-2.488 1.706-.715.723-1.274 1.554-1.676 2.49C.2 6.21 0 7.202 0 8.25c0 1.075.201 2.081.604 3.018.402.938.961 1.761 1.676 2.471.715.71 1.544 1.265 2.488 1.664.944.4 1.958.6 3.04.6zm.104-2.895c-.68 0-1.309-.124-1.885-.372-.576-.248-1.083-.596-1.52-1.044-.437-.448-.777-.964-1.02-1.55-.243-.586-.365-1.217-.365-1.892 0-.69.118-1.33.354-1.923.236-.592.57-1.113 1-1.56.43-.449.93-.797 1.5-1.045.568-.248 1.186-.372 1.852-.372.667 0 1.285.124 1.854.372.569.248 1.065.596 1.489 1.044.423.448.756.969 1 1.561.242.593.363 1.234.363 1.923 0 .675-.118 1.306-.354 1.892-.236.586-.562 1.102-.978 1.55-.417.448-.906.796-1.468 1.044-.562.248-1.17.372-1.822.372zm13.785 2.73v-4.818h2.165c1 0 1.843-.155 2.53-.465.687-.31 1.236-.72 1.645-1.23.41-.51.708-1.078.896-1.706.187-.627.28-1.25.28-1.87 0-1.048-.228-1.954-.686-2.72-.459-.764-1.125-1.357-2-1.777-.874-.42-1.943-.63-3.206-.63h-4.644v15.216h3.02zm2.144-7.733h-2.144v-4.59h2.165c.528 0 .948.09 1.26.27.312.179.545.4.698.661.152.262.253.52.301.775.05.255.073.459.073.61 0 .193-.038.42-.114.682-.077.262-.201.514-.375.755s-.413.441-.718.6c-.306.158-.688.237-1.146.237zm18.824 7.733v-2.895h-7.725V9.655h6.58V6.76h-6.58V3.515h7.434V.62H31.922v15.217h10.744zm16.93.62V.62h-3.04l.059 9.169L45.915.02h-.125v15.816h3.06l-.06-8.995 10.722 9.615h.083z" transform="translate(-18 -22) translate(18 22) translate(53.957 4.286)"/>
                    <path fill="#6DADC9" d="M66.467 15.837v-6.81l4.81 6.603h.042l4.997-7.053v7.26h3.02V0h-.042l-7.947 10.946L63.573 0h-.021v15.837h2.915zm23.697.165c1.069 0 2.075-.2 3.019-.6.944-.4 1.78-.954 2.51-1.664.728-.71 1.297-1.533 1.707-2.47.41-.938.614-1.944.614-3.019 0-1.047-.205-2.04-.614-2.977-.41-.937-.979-1.768-1.708-2.491-.729-.724-1.565-1.292-2.509-1.706-.944-.413-1.95-.62-3.02-.62-1.082 0-2.096.207-3.04.62-.943.414-1.773.982-2.488 1.706-.715.723-1.274 1.554-1.676 2.49-.403.938-.604 1.93-.604 2.978 0 1.075.201 2.081.604 3.018.402.938.961 1.761 1.676 2.471.715.71 1.545 1.265 2.489 1.664.943.4 1.957.6 3.04.6zm.104-2.895c-.68 0-1.309-.124-1.885-.372-.576-.248-1.082-.596-1.52-1.044-.437-.448-.777-.964-1.02-1.55-.243-.586-.364-1.217-.364-1.892 0-.69.118-1.33.353-1.923.236-.592.57-1.113 1-1.56.43-.449.93-.797 1.5-1.045.568-.248 1.186-.372 1.853-.372.666 0 1.284.124 1.853.372s1.065.596 1.489 1.044c.423.448.756.969 1 1.561.242.593.364 1.234.364 1.923 0 .675-.118 1.306-.354 1.892-.236.586-.563 1.102-.98 1.55-.416.448-.905.796-1.467 1.044s-1.17.372-1.822.372zm15.867 2.73c.68 0 1.34-.08 1.978-.238.639-.159 1.211-.414 1.718-.765.507-.352.91-.813 1.208-1.385.298-.572.447-1.272.447-2.099 0-.896-.284-1.664-.853-2.305-.427-.48-.97-.878-1.626-1.192l-.076-.034.039-.023c.37-.232.689-.511.96-.837l.13-.167c.465-.628.698-1.41.698-2.347 0-1.268-.472-2.223-1.416-2.863-.944-.641-2.214-.962-3.81-.962h-4.499v15.217h5.102zm-.25-8.994h-1.832V3.515h1.624c.597 0 1.072.13 1.426.392.354.262.531.655.531 1.179 0 .455-.142.861-.427 1.22-.284.358-.725.537-1.322.537zm.104 6.202h-1.936V9.738h1.728c.43 0 .843.044 1.239.134.396.09.718.248.968.475.25.228.375.562.375 1.003 0 .386-.104.707-.312.962-.209.255-.493.44-.854.558-.361.117-.764.175-1.208.175zm11.536 2.792V.62h-3.02v15.217h3.02zm14.18 0v-2.895h-7.204V.62h-3.02v15.217h10.225zm13.869 0v-2.895h-7.726V9.655h6.58V6.76h-6.58V3.515h7.434V.62H134.83v15.217h10.745z" transform="translate(-18 -22) translate(18 22) translate(53.957 4.286)"/>
                    <path fill="#000" d="M3.852 35.7v-6.81l4.81 6.604h.042l4.997-7.054v7.26h3.02V19.865h-.042L8.732 30.811.958 19.864H.937v15.837h2.915zm18.075 0l1.248-2.976h5.087l1.182 2.977h3.498l-6.913-15.816h-.167L18.95 35.701h2.978zm5.333-5.498h-3.027l1.555-3.71 1.472 3.71zM38.19 35.7v-4.817h2.165c1 0 1.843-.155 2.53-.465.687-.31 1.236-.72 1.645-1.23.41-.51.708-1.08.895-1.706.188-.627.282-1.251.282-1.871 0-1.048-.23-1.954-.688-2.719-.458-.765-1.124-1.358-1.999-1.778-.874-.42-1.943-.63-3.206-.63H35.17V35.7h3.02zm2.144-7.732H38.19v-4.59h2.166c.528 0 .947.09 1.26.269.312.179.545.4.697.661.153.262.254.52.302.776.049.255.073.458.073.61 0 .192-.038.42-.114.682-.077.262-.202.513-.375.754-.174.241-.413.441-.719.6-.305.158-.687.238-1.145.238zm12.015 7.897c1.138 0 2.096-.203 2.874-.61.777-.406 1.367-.94 1.77-1.602.402-.662.603-1.378.603-2.15 0-.73-.104-1.347-.312-1.85-.208-.504-.486-.924-.833-1.262-.347-.337-.739-.62-1.176-.847-.438-.228-.878-.424-1.323-.59-.485-.179-.954-.378-1.405-.599-.451-.22-.82-.472-1.104-.755-.284-.282-.427-.603-.427-.961 0-.524.188-.917.563-1.178.374-.262.888-.393 1.54-.393.528 0 1.094.103 1.698.31.603.207 1.197.469 1.78.786l1.145-2.295c-.61-.4-1.301-.745-2.072-1.034-.77-.29-1.773-.434-3.009-.434-.944.041-1.776.251-2.498.63-.722.38-1.281.893-1.677 1.54-.395.648-.593 1.413-.593 2.295 0 .731.135 1.348.406 1.85.27.504.625.924 1.062 1.262.437.338.906.624 1.406.858.5.234.985.441 1.457.62.403.152.774.33 1.114.538.34.206.611.434.812.682.202.248.302.524.302.827 0 .441-.121.786-.364 1.034s-.549.423-.916.527c-.368.103-.733.155-1.094.155-.36 0-.756-.055-1.187-.166-.43-.11-.857-.265-1.28-.465-.424-.2-.816-.43-1.177-.692l-1.332 2.336c.541.372 1.103.679 1.686.92s1.177.42 1.78.537c.605.118 1.198.176 1.781.176z" transform="translate(-18 -22) translate(18 22) translate(53.957 4.286)"/>
                </g>
                <g transform="translate(-18 -22) translate(18 22)">
                    <mask id="a73i8m5hxb" fill="#fff">
                        <use xlink:href="#nb8998117a"/>
                    </mask>
                    <use fill="#FFF" xlink:href="#nb8998117a"/>
                    <g mask="url(#a73i8m5hxb)">
                        <g>
                            <path fill="#ACD2E6" d="M0 40.133H36.028V61.072H0z" transform="rotate(120 29.682 24.385)"/>
                            <path fill="#70ADCC" d="M0 0H24.165V27.918H0zM43.058 40.133H61.510999999999996V61.072H43.058z" transform="rotate(120 29.682 24.385)"/>
                            <path fill="#DAEAF2" d="M31.195 0H61.510999999999996V27.918H31.195z" transform="rotate(120 29.682 24.385)"/>
                        </g>
                    </g>
                    <path fill="#1F3D4D" fill-rule="nonzero" d="M22.662 8.036c6.481 0 11.735 5.324 11.735 11.893 0 2.822-.97 5.414-2.59 7.453l-.479.592c-1.073 1.304-2.748 3.227-5.025 5.767l-3.641 4.027-2.998-3.312C17.059 31.561 15.17 29.401 14 27.98l-.479-.59c-1.623-2.04-2.595-4.636-2.595-7.46 0-6.569 5.254-11.893 11.736-11.893zm0 6.996c-2.669 0-4.832 2.192-4.832 4.897 0 2.704 2.163 4.897 4.832 4.897s4.832-2.193 4.832-4.897c0-2.705-2.163-4.897-4.832-4.897z"/>
                </g>
            </g>
        </g>
    </g>
</svg>
